<svg id="圖層_1" data-name="圖層 1" xmlns="http://www.w3.org/2000/svg" viewBox="0 0 20 20"><defs><style>.cls-1{fill:#292d32;}</style></defs><path class="cls-1" d="M10,.44c5.52,0,10,3.63,10,8.1a7.13,7.13,0,0,1-2,4.91c-2.16,2.35-8.29,6.49-8.82,6.08s.3-1.07.22-2.51a.39.39,0,0,0-.31-.41C4,16.22,0,12.76,0,8.54,0,4.07,4.48.44,10,.44ZM7.5,6A.52.52,0,0,0,7,6.5v3.9a.52.52,0,0,0,.52.52A.52.52,0,0,0,8,10.4V6.5A.52.52,0,0,0,7.5,6ZM4,6a.52.52,0,0,0-.52.52v3.9a.52.52,0,0,0,.52.52H6a.52.52,0,1,0,0-1H4.54V6.5A.52.52,0,0,0,4,6ZM9.28,6a.52.52,0,0,0-.52.52v3.9a.52.52,0,1,0,1,0V8l2,2.75a.53.53,0,0,0,.95-.32V6.5a.52.52,0,0,0-1,0V8.93l-2-2.73-.16-.15A.6.6,0,0,0,9.28,6ZM14,6a.52.52,0,0,0-.52.52h0v3.89h0a.52.52,0,0,0,.52.52h2a.52.52,0,0,0,0-1H14.51V9H16a.52.52,0,0,0,.52-.52A.52.52,0,0,0,16,7.93H14.51V7H16a.52.52,0,0,0,.52-.52A.52.52,0,0,0,16,6Z"/></svg>