<svg id="圖層_1" data-name="圖層 1" xmlns="http://www.w3.org/2000/svg" viewBox="0 0 20 20"><defs><style>.cls-1{fill:#292d32;}</style></defs><path class="cls-1" d="M19.55,7.06A9.89,9.89,0,0,0,7.63.28,9.75,9.75,0,0,0,1.79,4.37,9.7,9.7,0,0,0,.15,11.13a9.6,9.6,0,0,0,1.18,3.61.32.32,0,0,1,0,.3C1.07,16.09.78,17.14.5,18.2.33,18.8.17,19.4,0,20H.05l5-1.31a.69.69,0,0,1,.49.05,9.76,9.76,0,0,0,5.84,1,9.33,9.33,0,0,0,5.21-2.37A9.6,9.6,0,0,0,19.55,7.06ZM5.31,10.27a.91.91,0,1,1,.91-.91A.9.9,0,0,1,5.31,10.27Zm4.94,0a.91.91,0,1,1,.91-.91A.91.91,0,0,1,10.25,10.27Zm4.94,0a.91.91,0,1,1,0-1.81.91.91,0,0,1,0,1.81Z"/></svg>