<svg id="圖層_1" data-name="圖層 1" xmlns="http://www.w3.org/2000/svg" viewBox="0 0 32 32"><defs><style>.cls-1{fill:#fff;}.cls-2{fill:#070001;}.cls-3{fill:#df7c2c;}.cls-4{fill:#d06617;}</style></defs><rect class="cls-1" x="15.18" y="13.47" width="10.32" height="5.23"/><path class="cls-2" d="M3.19,18c0,.1.07.14.11.2a.38.38,0,0,0,.11.11s-.06,0-.09,0c-.29,0-.59,0-.89,0A.49.49,0,0,1,2,18.14a.28.28,0,0,1-.06-.23c0-.18,0-.38.06-.56s0-.45.07-.67,0-.29,0-.45,0-.37,0-.57l.09-.83c0-.17,0-.33,0-.49s0-.36,0-.56c0,0,0,0,.05,0h.8c.14,0,.28.17.32.33a1.69,1.69,0,0,1,0,.45,5,5,0,0,1-.06.56,3.59,3.59,0,0,1-.07.65l0,.5a3.6,3.6,0,0,1-.07.66c0,.13,0,.24,0,.36s0,.42-.07.62A.77.77,0,0,0,3.19,18Z"/><path class="cls-3" d="M26.88,13.17H15.51a.32.32,0,0,0-.16,0,.64.64,0,0,0-.34.57,5.79,5.79,0,0,1-.07.6c0,.18,0,.36-.08.54s-.06.46-.1.69a7.68,7.68,0,0,0-.11.82.4.4,0,0,1-.43.4h-.1c-.06,0-.06.06-.07.1a1.92,1.92,0,0,1-.59.89A2.35,2.35,0,0,1,12,18.4a4.1,4.1,0,0,1-1.11-.1,1.79,1.79,0,0,1-.72-.38,2.09,2.09,0,0,1-.43-.54.09.09,0,0,0-.08-.07c-.27,0-.53.07-.8.08a1.43,1.43,0,0,0-.35.06s0,.07,0,.1a1.15,1.15,0,0,1,.12.25,1.32,1.32,0,0,0,.44.53H8a1,1,0,0,1-.34-.07.5.5,0,0,1-.3-.3,2.08,2.08,0,0,0-.12-.3.12.12,0,0,0-.09-.09c-.37,0-.75.07-1.13.13,0,0,0,0,0,0a.55.55,0,0,0,.09.61H5.92c-.31,0-.6,0-.91,0a.27.27,0,0,1-.29-.2,1.55,1.55,0,0,1,0-.15s0-.08,0-.12H4.45c-.2,0-.43,0-.64.08s-.42,0-.62.07c0,0,0,.08,0,.12a1.27,1.27,0,0,0,.14.17.16.16,0,0,1-.1,0H2.35A.44.44,0,0,1,2,18.2s0-.06-.09-.06l-.72.09c-.11,0-.13,0-.15.14s0,.19-.05.29,0,.15.12.15H25.79l.1,0a.7.7,0,0,0,.28-.41c0-.22,0-.44.08-.68l0-.46c0-.2,0-.39.07-.59s0-.19,0-.29c0-.27,0-.53.08-.78a3.57,3.57,0,0,1,0-.46l.09-.71a5.2,5.2,0,0,1,.07-.69.61.61,0,0,1,.33-.51C27,13.15,26.92,13.17,26.88,13.17ZM20.13,14.6c0,.31-.07.63-.1.94s-.1.82-.14,1.24c0,.21,0,.4-.05.61s-.06.43-.07.66a.93.93,0,0,0,0,.23s0,.06-.05.06h-.88s-.06,0-.06-.07l.09-1c0-.09,0-.19,0-.27,0-.28.05-.57.07-.85,0,0,0-.07,0-.08s0,0-.06.07c-.15.33-.29.68-.44,1s-.32.76-.49,1.13a.08.08,0,0,1-.07,0h-.81s0,0,0-.06l-.13-.59c-.07-.32-.14-.62-.2-.94a4.54,4.54,0,0,1-.09-.51.17.17,0,0,1,0-.14s0,0,0,0h0a0,0,0,0,0,0,0h0a.28.28,0,0,1,0,.13c-.05.43-.11.85-.17,1.28,0,.25-.07.52-.09.77,0,0,0,.06-.07.06h-.88a.05.05,0,0,1-.06-.06c0-.33.09-.67.11-1s.06-.56.1-.82.07-.64.11-1,0-.42.07-.65.07-.61.1-.93c0-.07.06-.07.11-.07h1.44c.05,0,.1,0,.1.08,0,.39.09.78.14,1.17l.12,1c0,.13,0,.24,0,.36a.06.06,0,0,0,0,.06s0,0,0,0l.38-1.09c.17-.5.35-1,.51-1.52,0-.07.07-.07.13-.07h1.44c.05,0,.08,0,.07.08C20.18,14.16,20.16,14.38,20.13,14.6Zm4.94,3.74H23.94c-.06,0-.09,0-.09-.07,0-.21-.05-.4-.08-.61,0-.05,0-.05-.06-.05H22.35c-.05,0-.07,0-.07.06-.07.21-.16.4-.23.61a.08.08,0,0,1-.11.07H20.85c-.05,0-.08,0,0-.07.2-.41.39-.85.57-1.28l.8-1.77c.19-.43.39-.86.58-1.28,0-.06.07-.06.12-.06H24c.06,0,.1,0,.13.09.05.29.12.57.19.86l.2.82q.11.42.18.81c.06.27.13.57.2.85s.14.64.22,1A.08.08,0,0,1,25.07,18.34Z"/><path class="cls-2" d="M9,18.24a1.48,1.48,0,0,1-.43-.64s-.07-.07,0-.12l-.29-.65-.59-1.28a.17.17,0,0,1,0-.1,1.28,1.28,0,0,0,.14-.21c.28-.39.54-.78.81-1.18a.29.29,0,0,0,0-.24c0-.08-.11-.08-.18-.08H7.19a.18.18,0,0,1,0,.25.61.61,0,0,1-.1.14l-.78,1.08a1.3,1.3,0,0,1-.18.23s0-.09,0-.12c0-.36,0-.71,0-1.08V14.2a.19.19,0,0,0,0-.18.4.4,0,0,0-.34-.27H4.65a.11.11,0,0,0,.06.07.5.5,0,0,1,.2.49c0,.13,0,.26,0,.39s0,.5-.07.75,0,.53-.07.81,0,.41,0,.62l-.09,1a.65.65,0,0,0,.13.39.2.2,0,0,0,.18.1H6.09A.6.6,0,0,1,6,17.74,1.1,1.1,0,0,0,6,17.38a.4.4,0,0,1,.09-.2l.57-.65.42,1.08h0a.09.09,0,0,1,0,.07c0,.1.08.2.11.3a.61.61,0,0,0,.63.42c.38,0,.74,0,1.11,0h.1A.46.46,0,0,0,9,18.24Z"/><path class="cls-2" d="M14.24,15.58a2,2,0,0,0-.14-.68,1.8,1.8,0,0,0-.86-1,2.63,2.63,0,0,0-.91-.25,4,4,0,0,0-.69,0,3,3,0,0,0-.78.18,2.29,2.29,0,0,0-.9.67,2.57,2.57,0,0,0-.49,1.18,3.15,3.15,0,0,0,0,.81,2.35,2.35,0,0,0,.19.78s0,.05.06.07a1.81,1.81,0,0,0,.32.46,1.55,1.55,0,0,0,.72.45,3.5,3.5,0,0,0,.56.13,5.47,5.47,0,0,0,.81,0,2.58,2.58,0,0,0,.75-.19A2.15,2.15,0,0,0,14,17.13a1.55,1.55,0,0,1,.14-.32.09.09,0,0,0,0,0A3.32,3.32,0,0,0,14.24,15.58Zm-1.82,1a.66.66,0,0,1-.81.38.6.6,0,0,1-.22-.14.44.44,0,0,1-.13-.24.9.9,0,0,1,0-.28,2.72,2.72,0,0,1,.08-.63.64.64,0,0,1,.62-.43.56.56,0,0,1,.58.53v0a1.85,1.85,0,0,1-.08.77Z"/><path class="cls-3" d="M31,13.78a1.41,1.41,0,0,0-.17-.5.21.21,0,0,0-.18-.11H30a.35.35,0,0,1,.16.16,1.33,1.33,0,0,1,.09.52,7,7,0,0,1-.09,1.44c-.06.32-.12.62-.19.94a6.17,6.17,0,0,1-.3.95,4.6,4.6,0,0,1-.28.59s-.06.1-.11.08-.07-.07-.09-.11a3.17,3.17,0,0,1-.09-.82c0-.28,0-.56,0-.84l.05-.42c0-.22.07-.44.11-.65a2.81,2.81,0,0,1,.28-.78c.08-.14.16-.16.25,0a2.34,2.34,0,0,1,.19.62s0,.05,0,.05a.05.05,0,0,0,.05-.05c0-.13,0-.26.05-.38a2.62,2.62,0,0,0-.1-1,.39.39,0,0,0-.43-.34c-.05,0-.11,0-.15,0a.72.72,0,0,0-.17.18c0,.06-.07.06-.1,0a.52.52,0,0,0-.16-.17c-.12-.08-.24,0-.35,0a.42.42,0,0,0-.3.1.58.58,0,0,0-.13.14c-.05.07-.07,0-.1,0s0,0,0,0-.22-.24-.4-.21h-.16a.63.63,0,0,0-.64.52c0,.25-.06.51-.08.78a3,3,0,0,0-.05.42,3,3,0,0,1,0,.42c0,.14,0,.32,0,.48s-.05.44-.07.66-.07.6-.08.89-.06.59-.09.89a.44.44,0,0,0,.05.28.6.6,0,0,0,.75.3,1.83,1.83,0,0,0,.47-.28s.07-.06.11,0a.68.68,0,0,0,.2.24.4.4,0,0,0,.42,0,.83.83,0,0,0,.35-.27s0-.05.07,0a.74.74,0,0,0,.36.29.4.4,0,0,0,.32,0,1.18,1.18,0,0,0,.47-.47A5.84,5.84,0,0,0,30.62,17c.07-.27.14-.55.19-.81s.08-.49.13-.74,0-.42,0-.63A4.13,4.13,0,0,0,31,13.78Zm-3.12.54a1.2,1.2,0,0,0-.06.24c0,.13-.05.27-.07.41s-.07.47-.11.72A8.6,8.6,0,0,0,27.52,17c0,.18,0,.36,0,.54s0,.11-.07.18,0,.06,0,.09-.05.05-.07,0a.09.09,0,0,1-.06-.07,1.79,1.79,0,0,1-.12-.79v-.14c0-.3,0-.59,0-.9a2.24,2.24,0,0,1,.07-.44,4.13,4.13,0,0,1,.11-.53l.08-.34a3.33,3.33,0,0,1,.16-.4.1.1,0,0,1,0,0c0-.05.06-.13.12-.1S27.85,14.27,27.83,14.32Zm1,.23a2.66,2.66,0,0,0-.11.47,3.65,3.65,0,0,0-.07.46,1.67,1.67,0,0,0-.05.31,12.06,12.06,0,0,0-.05,1.48c0,.07,0,.14,0,.21a.48.48,0,0,1-.17.37s-.05,0-.09,0a.68.68,0,0,1-.11-.3,3,3,0,0,1-.07-.84,6.5,6.5,0,0,1,.07-1,5.43,5.43,0,0,1,.09-.56,3.22,3.22,0,0,1,.27-.81.6.6,0,0,1,.14-.21s.07,0,.09,0A.39.39,0,0,1,28.82,14.55Z"/><path class="cls-4" d="M23.27,15.4c0,.15.05.28.08.42s.11.54.17.8c0,.07,0,.09-.07.09h-.7s-.07,0-.06-.06l.53-1.21S23.25,15.41,23.27,15.4Z"/></svg>