<?xml version="1.0" encoding="UTF-8" standalone="no"?>
<!-- Created with Inkscape (http://www.inkscape.org/) -->
<svg
   xmlns:svg="http://www.w3.org/2000/svg"
   xmlns="http://www.w3.org/2000/svg"
   version="1.0"
   width="1024"
   height="140"
   viewBox="0 0 317.50131 43.50243"
   id="svg4504">
  <defs
     id="defs4506">
    <clipPath
       id="clipPath25148">
      <path
         d="M -1.131,-17.198 L 3.563,-17.198 L 3.563,-1.47301 L -1.131,-1.47301 L -1.131,-17.198 z "
         id="path25150" />
    </clipPath>
    <clipPath
       id="clipPath25138">
      <path
         d="M 118.901,580.123 L 310.36,580.123 L 310.36,538.665 L 118.901,538.665 L 118.901,580.123 z "
         id="path25140" />
    </clipPath>
    <clipPath
       id="clipPath25130">
      <path
         d="M 0.015,0.015 L 898.60504,0.015 L 898.60504,651.97498 L 0.015,651.97498 L 0.015,0.015 z "
         id="path25132" />
    </clipPath>
    <clipPath
       id="clipPath25122">
      <path
         d="M 118.901,580.123 L 310.36,580.123 L 310.36,538.665 L 118.901,538.665 L 118.901,580.123 z "
         id="path25124" />
    </clipPath>
    <clipPath
       id="clipPath25216">
      <path
         d="M -0.806,-16.666 L 9.146001,-16.666 L 9.146001,0.479 L -0.806,0.479 L -0.806,-16.666 z "
         id="path25218" />
    </clipPath>
    <clipPath
       id="clipPath25206">
      <path
         d="M 19.551,580.123 L 109.845,580.123 L 109.845,538.665 L 19.551,538.665 L 19.551,580.123 z "
         id="path25208" />
    </clipPath>
    <clipPath
       id="clipPath25198">
      <path
         d="M 0.015,0.015 L 898.60504,0.015 L 898.60504,651.97498 L 0.015,651.97498 L 0.015,0.015 z "
         id="path25200" />
    </clipPath>
    <clipPath
       id="clipPath25190">
      <path
         d="M 19.551,580.123 L 109.845,580.123 L 109.845,538.665 L 19.551,538.665 L 19.551,580.123 z "
         id="path25192" />
    </clipPath>
  </defs>
  <g
     transform="translate(-84.106488,-342.03953)"
     id="layer1">
    <g
       transform="matrix(1.25,0,0,-1.25,33.633319,1062.9115)"
       id="g25118">
      <g
         clip-path="url(#clipPath25122)"
         id="g25120">
        <g
           id="g25126">
          <g
             clip-path="url(#clipPath25130)"
             id="g25128">
            <g
               id="g25134">
              <g
                 clip-path="url(#clipPath25138)"
                 id="g25136">
                <g
                   transform="matrix(191.4518,0,0,41.4597,216.4587,713.0429)"
                   id="g25142">
                  <g
                     id="g25144">
                    <g
                       clip-path="url(#clipPath25148)"
                       id="g25146">
                      <path
                         d="M 117,4.125 C 113.25288,4.1281884 109.15971,5.1504693 106.4375,8.6875 C 106.4375,8.6875003 100.67236,18.355582 115.03125,22.8125 C 115.03125,22.812499 122.46633,25.013384 120.3125,29.78125 C 120.3125,29.781251 118.87843,31.78125 112.65625,31.78125 C 112.65625,31.781249 108.34053,31.410716 105.46875,30.21875 L 105.46875,35.78125 C 105.46875,35.781252 116.46693,39.514761 124.125,34.125 C 124.125,34.125 130.84718,29.503895 124.625,21.9375 C 124.625,21.9375 122.23287,19.23991 116.25,17.21875 C 116.25,17.218751 111.43831,15.005828 112.15625,12 C 112.15625,12 112.41431,8.327056 119.59375,9.15625 C 119.59375,9.1562498 121.99415,9.0824889 126.0625,11 L 126.0625,5.78125 C 126.0625,5.78125 121.81773,4.1209006 117,4.125 z M 218.4375,5.03125 L 230.15625,24.21875 L 222.71875,36.8125 L 228.46875,36.8125 L 246.4375,5.03125 L 240.6875,5.03125 L 232.78125,19.1875 L 223.9375,5.03125 L 218.4375,5.03125 z M 253.59375,9.65625 C 246.17499,9.6562504 239.96875,15.766679 239.96875,23.28125 C 239.96875,30.79582 246.17499,36.875 253.59375,36.875 C 261.25181,36.875001 267.25,30.795821 267.25,23.28125 C 267.25,15.766679 261.25182,9.65625 253.59375,9.65625 z M 309.84375,9.96875 C 303.14808,9.8563958 294.09161,11.797486 293.34375,22.875 C 293.34376,22.874999 292.13264,41.127533 317.5,35.375 L 317.5,21.59375 L 306,21.625 L 306,25.53125 L 312.46875,25.46875 L 312.46875,32.40625 C 298.58849,33.909164 299.0625,23.28125 299.0625,23.28125 C 299.06251,10.428743 317.03125,14.9375 317.03125,14.9375 L 317.03125,10.84375 C 317.03125,10.84375 313.86115,10.036163 309.84375,9.96875 z M 212.25,10 C 205.60341,9.9028288 196.58493,11.859986 195.6875,22.9375 C 195.68751,22.937499 194.72639,41.158783 220.09375,35.40625 L 220.09375,21.625 L 208.625,21.625 L 208.375,25.53125 L 215.0625,25.53125 L 215.0625,32.46875 C 200.94293,33.971666 201.6875,23.34375 201.6875,23.34375 C 201.44818,10.491243 219.375,15 219.375,15 L 219.375,10.84375 C 219.375,10.84375 216.23796,10.058303 212.25,10 z M 137,10.09375 C 133.83077,10.141576 130.41745,11.004071 128.21875,13.90625 C 128.21875,13.90625 123.66914,21.622276 135.15625,25.25 C 135.15626,25.25 141.3627,26.446228 139.6875,30.28125 C 139.68751,30.28125 138.74436,32.5 133.71875,32.5 C 133.71875,32.5 130.1119,32.203418 127.71875,31.21875 L 127.71875,35.71875 C 127.71875,35.71875 136.56975,38.842593 143.03125,34.4375 C 143.03124,34.4375 147.83892,30.013985 143.53125,24.46875 C 143.53125,24.468749 141.61936,22.262813 136.59375,20.65625 C 136.59375,20.656251 132.51069,19.402955 132.75,16.65625 C 132.75,16.65625 132.9752,13.60753 138.71875,14.28125 C 138.71876,14.28125 142.3256,14.88878 144.71875,15.5625 L 144.71875,11.3125 C 144.71875,11.3125 141.07472,10.032259 137,10.09375 z M 189.21875,10.34375 L 189.21875,29.3125 L 178.46875,10.375 L 171.75,10.375 L 171.75,35.5625 L 176.3125,35.5625 L 176.3125,16.09375 L 187.5625,35.53125 L 193.78125,35.5625 L 193.78125,10.34375 L 189.21875,10.34375 z M 269.15625,10.34375 L 269.15625,35.53125 L 273.9375,35.53125 L 273.9375,16.09375 L 284.96875,35.53125 L 291.40625,35.53125 L 291.40625,10.375 L 286.625,10.375 L 286.625,29.25 L 275.875,10.375 L 269.15625,10.34375 z M 154.28125,10.375 L 144.46875,35.53125 L 149.75,35.53125 L 152.125,30.0625 L 163.15625,30.0625 L 165.3125,35.53125 L 170.5625,35.53125 L 161.21875,10.375 L 154.28125,10.375 z M 253.59375,13.8125 C 259.09798,13.8125 261.5,18.046963 261.5,23.28125 C 261.50001,28.515537 258.38004,32.71875 253.59375,32.71875 C 248.80745,32.71875 245.71875,28.515537 245.71875,23.28125 C 245.71876,18.046963 248.32883,13.8125 253.59375,13.8125 z M 157.625,15.15625 L 161.46875,26.125 L 153.5625,26.125 L 157.625,15.15625 z "
                         transform="matrix(4.1785974e-3,0,0,-1.9295846e-2,-0.9197102,-3.288623)"
                         style="fill:#000000;fill-opacity:1;fill-rule:nonzero;stroke:none"
                         id="path25152" />
                    </g>
                  </g>
                </g>
              </g>
            </g>
          </g>
        </g>
      </g>
    </g>
    <g
       transform="matrix(1.25,0,0,-1.25,33.633319,1062.9115)"
       id="g25186">
      <g
         clip-path="url(#clipPath25190)"
         id="g25188">
        <g
           id="g25194">
          <g
             clip-path="url(#clipPath25198)"
             id="g25196">
            <g
               id="g25202">
              <g
                 clip-path="url(#clipPath25206)"
                 id="g25204">
                <g
                   transform="matrix(90.2992,0,0,38.0266,72.7547,633.7679)"
                   id="g25210">
                  <g
                     id="g25212">
                    <g
                       clip-path="url(#clipPath25216)"
                       id="g25214">
                      <path
                         d="M 0.272,-1.827 C 0.254,-1.668 0.167,-1.588 0.167,-1.588 C 0.144,-1.568 0.153,-1.6 0.153,-1.6 C 0.153,-1.6 0.253,-1.709 0.253,-1.86 C 0.253,-2.048 0.144,-2.104 0.144,-2.104 C 0.243,-2.03 0.243,-1.87 0.243,-1.87 C 0.242,-1.711 0.153,-1.6 0.153,-1.6 C 0.119,-1.554 0.101,-1.542 0.101,-1.542 C 0.056,-1.507 0.071,-1.548 0.071,-1.548 C 0.071,-1.548 0.205,-1.648 0.205,-1.87 C 0.205,-2.096 0.018,-2.169 0.018,-2.169 C 0.194,-2.091 0.194,-1.872 0.194,-1.872 C 0.194,-1.674 0.071,-1.548 0.071,-1.548 C 0.052,-1.524 0.021,-1.505 0.021,-1.505 C -0.008,-1.49 0.008,-1.52 0.008,-1.52 C 0.126,-1.684 0.126,-1.865 0.126,-1.865 C 0.126,-2.066 0.049,-2.116 0.049,-2.116 C 0.026,-2.137 -0.018,-2.153 -0.018,-2.153 C -0.025,-2.158 -0.03,-2.17 -0.03,-2.183 C -0.03,-2.189 -0.029,-2.194 -0.027,-2.198 C -0.023,-2.209 -0.009,-2.234 -0.009,-2.234 C -0.004,-2.246 -0.001,-2.26 -0.001,-2.276 C -0.001,-2.313 -0.019,-2.344 -0.042,-2.345 L -0.043,-2.345 C -0.066,-2.344 -0.084,-2.313 -0.084,-2.276 C -0.084,-2.26 -0.081,-2.246 -0.076,-2.234 C -0.076,-2.234 -0.062,-2.209 -0.058,-2.198 C -0.056,-2.194 -0.055,-2.189 -0.055,-2.183 C -0.055,-2.17 -0.06,-2.158 -0.067,-2.153 C -0.067,-2.153 -0.111,-2.137 -0.133,-2.116 C -0.133,-2.116 -0.211,-2.066 -0.211,-1.865 C -0.211,-1.865 -0.211,-1.684 -0.093,-1.52 C -0.093,-1.52 -0.077,-1.49 -0.106,-1.505 C -0.106,-1.505 -0.137,-1.524 -0.156,-1.548 C -0.156,-1.548 -0.279,-1.674 -0.279,-1.872 C -0.279,-1.872 -0.279,-2.091 -0.103,-2.169 C -0.103,-2.169 -0.29,-2.096 -0.29,-1.87 C -0.29,-1.648 -0.156,-1.548 -0.156,-1.548 C -0.156,-1.548 -0.141,-1.507 -0.186,-1.542 C -0.186,-1.542 -0.204,-1.554 -0.238,-1.6 C -0.238,-1.6 -0.327,-1.711 -0.328,-1.87 C -0.328,-1.87 -0.328,-2.03 -0.229,-2.104 C -0.229,-2.104 -0.338,-2.048 -0.338,-1.86 C -0.338,-1.709 -0.238,-1.6 -0.238,-1.6 C -0.238,-1.6 -0.229,-1.568 -0.252,-1.588 C -0.252,-1.588 -0.339,-1.668 -0.357,-1.827 C -0.357,-1.827 -0.362,-1.887 -0.354,-1.931 C -0.344,-1.984 -0.319,-2.073 -0.254,-2.123 C -0.254,-2.123 -0.225,-2.152 -0.107,-2.208 L -0.1,-2.211 C -0.1,-2.211 -0.095,-2.217 -0.099,-2.226 L -0.115,-2.259 C -0.115,-2.259 -0.139,-2.303 -0.105,-2.339 C -0.105,-2.339 -0.084,-2.356 -0.069,-2.393 C -0.069,-2.393 -0.06,-2.415 -0.044,-2.416 L -0.041,-2.416 C -0.025,-2.415 -0.016,-2.393 -0.016,-2.393 C -0.001,-2.356 0.02,-2.339 0.02,-2.339 C 0.054,-2.303 0.03,-2.259 0.03,-2.259 L 0.014,-2.226 C 0.01,-2.217 0.015,-2.211 0.015,-2.211 L 0.022,-2.208 C 0.14,-2.152 0.17,-2.123 0.17,-2.123 C 0.234,-2.073 0.26,-1.984 0.269,-1.931 C 0.277,-1.887 0.272,-1.827 0.272,-1.827"
                         style="fill:#000000;fill-opacity:1;fill-rule:nonzero;stroke:none"
                         id="path25220" />
                    </g>
                  </g>
                </g>
              </g>
            </g>
          </g>
        </g>
      </g>
    </g>
  </g>
</svg>
