<svg id="圖層_1" data-name="圖層 1" xmlns="http://www.w3.org/2000/svg" viewBox="0 0 20 20"><defs><style>.cls-1{fill:#292d32;}</style></defs><path class="cls-1" d="M14.2,0H5.81C2.17,0,0,2.17,0,5.81v8.37C0,17.83,2.17,20,5.81,20h8.38C17.83,20,20,17.83,20,14.19V5.81C20,2.17,17.84,0,14.2,0ZM10,13.88A3.88,3.88,0,1,1,13.89,10,3.88,3.88,0,0,1,10,13.88Zm5.93-9a1.15,1.15,0,0,1-.21.33,1.15,1.15,0,0,1-.33.21,1,1,0,0,1-1.09-.21,1.15,1.15,0,0,1-.21-.33.94.94,0,0,1,0-.76,1,1,0,0,1,.21-.33,1,1,0,0,1,.9-.27.6.6,0,0,1,.19.06l.18.09.15.12a1,1,0,0,1,.21.33.94.94,0,0,1,0,.76Z"/></svg>