<?xml version="1.0" encoding="utf-8"?>
<!-- Generator: Adobe Illustrator 24.0.1, SVG Export Plug-In . SVG Version: 6.00 Build 0)  -->
<svg version="1.1" id="圖層_1" xmlns="http://www.w3.org/2000/svg" xmlns:xlink="http://www.w3.org/1999/xlink" x="0px" y="0px"
	 viewBox="0 0 215 40.5" style="enable-background:new 0 0 215 40.5;" xml:space="preserve">
<style type="text/css">
	.st0{fill:#FFFFFF;}
	.st1{fill:#040000;}
	.st2{fill:#E97F27;}
	.st3{fill:#D96810;}
</style>
<rect x="101.1" y="2.8" class="st0" width="73.5" height="35.7"/>
<path class="st1" d="M15.6,34.9c-0.1,0.7,0.5,1,0.8,1.4c0.2,0.3,0.5,0.6,0.8,0.8c-0.2,0.2-0.4,0.1-0.6,0.1c-2.1,0-4.3-0.1-6.4,0
	c-1.3,0.1-2.6-0.4-3.4-1.5c-0.4-0.5-0.5-1.1-0.4-1.7c0.1-1.3,0.2-2.7,0.4-4c0.1-1.6,0.3-3.2,0.5-4.8c0.1-1.1,0.2-2.1,0.3-3.2
	c0.1-1.4,0.3-2.7,0.4-4.1c0.2-2,0.4-4,0.6-6c0.1-1.2,0.2-2.3,0.3-3.5C8.8,7.2,9,5.8,9.1,4.4c0-0.3,0.2-0.3,0.4-0.3
	c1.9,0,3.8,0,5.7,0c1,0,2,1.2,2.3,2.4c0.2,1.1,0.1,2.1,0,3.2c-0.1,1.4-0.3,2.7-0.4,4c-0.1,1.6-0.3,3.1-0.5,4.7
	c-0.1,1.2-0.2,2.4-0.3,3.6c-0.1,1.6-0.3,3.1-0.5,4.7c-0.1,0.9-0.1,1.7-0.2,2.6c-0.1,1.5-0.3,3-0.5,4.4
	C15.3,34.1,15.4,34.6,15.6,34.9z"/>
<path class="st2" d="M185.5,0H104c-0.4,0-0.8,0.1-1.2,0.3c-1.5,0.8-2.4,2.4-2.4,4.1c-0.1,1.5-0.3,2.9-0.5,4.3
	c-0.3,1.3-0.3,2.6-0.6,3.9c-0.3,1.6-0.4,3.3-0.7,4.9c-0.4,2-0.6,3.9-0.8,5.9c0,1.7-1.4,3-3.1,2.9c-0.2,0-0.5,0-0.7-0.1
	c-0.4,0-0.4,0.4-0.5,0.7c-0.8,2.5-2.2,4.7-4.2,6.4c-2.9,2.6-6.7,4.1-10.7,4.2c-2.7,0.2-5.4-0.1-8-0.7c-1.9-0.5-3.6-1.4-5.1-2.7
	c-1.2-1.1-2.3-2.4-3.1-3.9c-0.1-0.2-0.2-0.5-0.6-0.5c-1.9,0.2-3.8,0.5-5.7,0.6c-0.9,0-1.7,0.2-2.5,0.4c-0.3,0.2-0.1,0.5,0,0.7
	c0.3,0.6,0.6,1.2,0.8,1.8c0.7,1.5,1.8,2.8,3.2,3.8c-2.6,0-5.2,0-7.8,0c-0.9,0-1.7-0.2-2.5-0.5c-1-0.4-1.8-1.1-2.1-2.1
	c-0.3-0.8-0.5-1.5-0.9-2.3c-0.1-0.3-0.2-0.6-0.6-0.6c-2.7,0.3-5.4,0.5-8.1,0.9c-0.1,0-0.2,0.1-0.2,0.2c-0.5,1.6-0.6,3.1,0.7,4.4
	c-0.3,0-0.6,0-0.9,0c-2.2,0-4.3-0.1-6.5,0c-1,0.1-1.8-0.5-2.1-1.4c-0.1-0.3-0.2-0.7-0.3-1.1c-0.1-0.3,0-0.6-0.3-0.9
	c-0.4,0-0.9,0-1.3,0c-1.5,0.3-3.1,0.3-4.6,0.6s-3,0.3-4.5,0.5c-0.3,0.3,0,0.6,0.1,0.9c0.3,0.5,0.7,0.8,1,1.2
	c-0.2,0.1-0.4,0.1-0.7,0.1c-2.1,0-4.2,0-6.4,0c-0.9,0-1.7-0.3-2.3-0.9c-0.2-0.2-0.3-0.4-0.6-0.4c-1.7,0.2-3.5,0.4-5.2,0.6
	c-0.8,0.1-0.9,0.2-1.1,1s-0.2,1.4-0.3,2.1c-0.3,1.1-0.3,1.1,0.8,1.1h176.1c0.2,0,0.4,0,0.7,0c0.3,0,0.5-0.1,0.7-0.3
	c1-0.7,1.7-1.7,2-2.9c0.3-1.6,0.4-3.3,0.6-4.9c0.1-1.1,0.2-2.2,0.3-3.3c0.1-1.4,0.3-2.8,0.5-4.2c0.1-0.7,0-1.4,0.1-2.1
	c0.3-1.9,0.3-3.8,0.6-5.6c0.1-1.1,0.1-2.2,0.3-3.3c0.2-1.7,0.4-3.4,0.6-5.1s0.2-3.3,0.5-4.9s0.8-3,2.4-3.7
	C186.1-0.1,185.8,0,185.5,0z M137.1,10.3c-0.3,2.2-0.5,4.5-0.7,6.7c-0.3,3-0.7,5.9-1,8.9c-0.2,1.5-0.3,2.9-0.4,4.4s-0.4,3.1-0.5,4.7
	c-0.1,0.6-0.1,1.2-0.1,1.7c0,0.3-0.1,0.4-0.4,0.4h-6.3c-0.3,0-0.4-0.1-0.4-0.5c0.2-2.4,0.4-4.8,0.6-7.2c0.1-0.6,0.1-1.3,0.2-1.9
	c0.2-2,0.3-4.1,0.5-6.1c0-0.2,0.1-0.5-0.1-0.6s-0.3,0.3-0.4,0.5c-1.1,2.4-2.1,4.9-3.2,7.3c-1.2,2.7-2.3,5.4-3.5,8.1
	c-0.1,0.2-0.3,0.3-0.5,0.3h-5.8c-0.3,0-0.4-0.1-0.4-0.4c-0.3-1.4-0.6-2.8-0.9-4.2c-0.5-2.3-1-4.5-1.4-6.8c-0.3-1.2-0.5-2.4-0.7-3.6
	c-0.1-0.3-0.3-0.6-0.2-1c0-0.1-0.1-0.2-0.2-0.2c0,0,0,0,0,0c-0.1,0-0.2,0-0.3,0.2c0,0,0,0,0,0c0,0.3-0.1,0.6-0.2,0.9
	c-0.4,3.1-0.8,6.1-1.2,9.2c-0.2,1.9-0.5,3.7-0.7,5.5c0,0.3-0.2,0.4-0.5,0.4h-6.3c-0.3,0-0.4-0.1-0.4-0.4c0.3-2.4,0.6-4.8,0.8-7.1
	c0.2-2,0.4-4,0.7-5.9c0.3-2.3,0.5-4.6,0.8-6.9c0.2-1.5,0.3-3,0.5-4.6c0.2-2.2,0.5-4.4,0.7-6.7c0-0.5,0.4-0.5,0.8-0.5h10.3
	c0.4,0,0.7,0.1,0.7,0.6c0.3,2.8,0.7,5.6,1,8.4c0.3,2.5,0.6,5,0.9,7.5c0.1,0.9,0.2,1.7,0.3,2.6c0,0.1,0,0.3,0.2,0.4s0.2-0.2,0.3-0.3
	c0.9-2.6,1.8-5.2,2.7-7.8c1.3-3.6,2.5-7.2,3.7-10.9c0.2-0.5,0.5-0.5,0.9-0.5h10.3c0.4,0,0.6,0.1,0.5,0.6
	C137.5,7.1,137.3,8.7,137.1,10.3z M172.5,37.1c-2.7,0-5.4,0-8.1,0c-0.4,0-0.6-0.1-0.6-0.5c-0.2-1.5-0.4-2.9-0.6-4.4
	c0-0.3-0.2-0.3-0.4-0.3h-9.8c-0.3,0-0.5,0.2-0.5,0.4c-0.5,1.5-1.1,2.9-1.6,4.4c-0.1,0.3-0.4,0.6-0.8,0.5c-2.6,0-5.2,0-7.8,0
	c-0.4,0-0.6,0-0.3-0.5c1.4-3,2.8-6.1,4.1-9.2l5.7-12.7c1.4-3.1,2.8-6.2,4.2-9.3c0.2-0.4,0.5-0.4,0.8-0.4h8.3c0.4,0,0.7,0,0.9,0.6
	c0.4,2.1,0.9,4.1,1.4,6.2s0.9,3.9,1.4,5.9s0.9,3.9,1.3,5.8s0.9,4.1,1.4,6.1c0.5,2.3,1,4.6,1.6,6.9C173,36.9,172.9,37.1,172.5,37.1z"
	/>
<path class="st1" d="M57.1,36.4c-1.4-1.2-2.5-2.8-3.1-4.6c-0.1-0.3-0.5-0.5-0.3-0.9l-2.1-4.6c-1.4-3.1-2.8-6.1-4.2-9.2
	c-0.1-0.2-0.1-0.5,0-0.7c0.4-0.5,0.7-1,1-1.5c2-2.8,3.9-5.6,5.8-8.5c0.3-0.5,0.3-1.2,0.1-1.7c-0.3-0.6-0.8-0.6-1.3-0.6H45
	c-0.2,0-0.5,0-0.7,0.1c0.5,0.5,0.6,1.3,0.1,1.8c-0.2,0.3-0.4,0.7-0.7,1c-1.9,2.6-3.7,5.1-5.6,7.7c-0.4,0.6-0.8,1.2-1.3,1.7
	c0-0.4,0.1-0.7,0.1-0.9c0.1-2.6,0.1-5.1,0.1-7.7c0-0.1,0-0.3,0-0.4c0.2-0.4,0.2-0.9,0-1.3c-0.4-1.1-1.3-1.8-2.4-1.9h-8.5
	c0.1,0.2,0.2,0.4,0.4,0.5c1.1,0.8,1.7,2.1,1.5,3.5c-0.1,0.9-0.1,1.9-0.2,2.8c-0.1,1.8-0.3,3.6-0.5,5.4s-0.3,3.8-0.5,5.8
	c-0.1,1.5-0.2,2.9-0.3,4.4c-0.2,2.5-0.4,4.9-0.6,7.4c0,1,0.3,1.9,0.9,2.8c0.3,0.5,0.8,0.7,1.3,0.7c2.5,0,5.1,0,7.6,0h0.7
	c-1.4-1.5-1.3-3-0.8-4.7c0.3-0.8,0.4-1.7,0.5-2.6c0-0.5,0.3-1,0.6-1.4c1.4-1.5,2.7-3.1,4.1-4.7l3,7.8l0,0c0.2,0.1,0.3,0.3,0.3,0.5
	c0.3,0.7,0.6,1.4,0.8,2.1c0.6,2.1,2.3,2.9,4.5,3c2.7,0.1,5.3,0,8,0h0.7C57.7,36.9,57.4,36.6,57.1,36.4z"/>
<path class="st1" d="M94.9,17.3c-0.1-1.7-0.4-3.3-1-4.8c-1.1-3-3.3-5.5-6.2-7c-2-1-4.3-1.6-6.5-1.8c-1.7-0.1-3.3-0.1-5,0
	c-1.9,0.2-3.8,0.6-5.6,1.3c-2.5,1-4.7,2.7-6.4,4.8c-1.9,2.5-3.1,5.4-3.5,8.5c-0.3,1.9-0.4,3.9-0.2,5.8c0.2,1.9,0.6,3.8,1.4,5.6
	c0.2,0.1,0.3,0.3,0.4,0.5c0.6,1.2,1.4,2.3,2.3,3.3c1.4,1.5,3.2,2.6,5.2,3.2c1.3,0.4,2.6,0.7,4,0.9c1.9,0.2,3.9,0.2,5.8,0
	c1.9-0.2,3.7-0.6,5.4-1.3c3.5-1.5,6.4-4.3,8-7.8c0.3-0.8,0.6-1.6,1-2.3c0.1-0.1,0.1-0.2,0.1-0.3C94.9,23.1,95.1,20.2,94.9,17.3z
	 M81.8,24.2c-0.9,2.3-3.5,3.5-5.8,2.7c-0.6-0.2-1.2-0.6-1.6-1c-0.5-0.5-0.8-1.1-0.9-1.7c-0.2-0.7-0.3-1.3-0.3-2c0-1.5,0.2-3,0.6-4.5
	c0.6-1.9,2.4-3.2,4.4-3.1c2.2-0.1,4.1,1.6,4.2,3.8c0,0.1,0,0.2,0,0.3C82.6,20.5,82.4,22.4,81.8,24.2L81.8,24.2z"/>
<path class="st2" d="M214.7,4.4c-0.2-1.3-0.6-2.5-1.2-3.6c-0.3-0.5-0.8-0.8-1.3-0.8h-4.3c0.5,0.3,0.9,0.7,1.1,1.2
	c0.5,1.2,0.7,2.4,0.7,3.7c0.1,3.4-0.1,6.9-0.7,10.3c-0.4,2.3-0.8,4.5-1.3,6.8c-0.5,2.3-1.3,4.6-2.2,6.8c-0.6,1.5-1.2,2.9-2,4.2
	c-0.2,0.3-0.4,0.7-0.8,0.6s-0.5-0.5-0.6-0.8c-0.5-1.9-0.7-3.9-0.7-5.9c0-2,0-4,0.2-6c0.1-1,0.2-2,0.3-3c0.2-1.6,0.5-3.2,0.8-4.7
	c0.4-1.9,1.1-3.8,2-5.6c0.6-1,1.2-1.1,1.8-0.1c0.7,1.4,1.2,2.9,1.4,4.4c0,0.2,0.1,0.4,0.3,0.4c0.2,0,0.3-0.2,0.3-0.4
	c0.2-0.9,0.3-1.8,0.4-2.7c0.2-2.3-0.1-4.6-0.7-6.9c-0.5-1.7-1.3-2.4-3.1-2.4c-0.4,0-0.8-0.1-1.1,0.2c-0.5,0.4-0.9,0.8-1.2,1.3
	c-0.2,0.4-0.5,0.4-0.7,0c-0.3-0.5-0.7-0.9-1.2-1.2c-0.8-0.6-1.7-0.3-2.5-0.3c-0.8-0.1-1.5,0.2-2.1,0.7c-0.4,0.3-0.7,0.6-1,1
	c-0.3,0.5-0.5,0.3-0.7,0c-0.1-0.1-0.1-0.2-0.2-0.2c-0.8-0.8-1.6-1.7-2.9-1.5c-0.4,0-0.7,0-1.1,0c-2.2-0.1-4.2,1.5-4.6,3.7
	c-0.2,1.9-0.4,3.7-0.6,5.6c-0.1,1-0.3,2-0.3,3s-0.2,2-0.3,3s-0.2,2.3-0.3,3.5c-0.2,1.6-0.4,3.1-0.5,4.7c-0.2,2.1-0.5,4.3-0.6,6.4
	s-0.4,4.2-0.6,6.4c-0.1,0.7,0,1.4,0.3,2c1.2,1.9,3.1,3,5.4,2.1c1.3-0.5,2.4-1.2,3.4-2c0.3-0.3,0.5-0.4,0.8,0.1
	c0.3,0.7,0.8,1.3,1.4,1.7c0.9,0.7,2,0.8,3,0.4c1-0.4,1.8-1.1,2.5-2c0.2-0.2,0.3-0.3,0.5,0c0.6,1,1.5,1.7,2.6,2.1
	c0.8,0.3,1.6,0.2,2.3-0.1c1.4-0.8,2.6-2,3.4-3.4c1.8-3.1,3.2-6.5,4.1-10c0.5-1.9,1-3.9,1.4-5.8c0.4-1.8,0.6-3.5,0.9-5.3
	c0.2-1.5,0.4-3,0.4-4.5C215.1,9.2,215.1,6.8,214.7,4.4z M192.3,8.3c-0.2,0.6-0.3,1.1-0.4,1.7c-0.2,0.9-0.4,1.9-0.5,2.9
	c-0.3,1.7-0.5,3.4-0.8,5.1c-0.4,3.2-0.6,6.4-0.5,9.6c0,1.3,0.2,2.6,0.3,3.9c0.1,0.5-0.4,0.8-0.5,1.3c-0.1,0.2-0.3,0.4-0.4,0.6
	c-0.2,0.2-0.3,0.4-0.5,0.3s-0.4-0.3-0.4-0.5c-0.7-1.8-1-3.8-0.9-5.7c0-0.3,0-0.7,0-1c0-2.1,0.1-4.2,0.3-6.4c0-1.1,0.3-2.1,0.5-3.2
	c0.2-1.3,0.5-2.5,0.8-3.8c0.2-0.8,0.4-1.6,0.6-2.4c0.3-1,0.7-1.9,1.1-2.9c0-0.1,0.1-0.3,0.1-0.3c0.3-0.3,0.4-0.9,0.9-0.7
	S192.5,7.9,192.3,8.3z M199.4,9.9c-0.3,1.1-0.6,2.3-0.8,3.4c-0.2,1.1-0.4,2.2-0.5,3.3c-0.1,0.7-0.3,1.5-0.3,2.2
	c-0.3,3.5-0.5,7-0.4,10.6c0,0.5,0.1,1,0.1,1.5c0,1-0.4,2-1.2,2.7c-0.3,0.3-0.4,0.3-0.7,0c-0.4-0.7-0.7-1.4-0.8-2.2
	c-0.4-2-0.6-4-0.5-6c0-2.4,0.2-4.7,0.5-7.1c0.2-1.3,0.4-2.7,0.7-4c0.4-2,1-4,1.9-5.8c0.2-0.6,0.6-1.1,1-1.5c0.3-0.2,0.5-0.3,0.7,0.1
	C199.7,8,199.8,9,199.4,9.9z"/>
<path class="st3" d="M159.6,16c0.2,1.1,0.4,2,0.6,3c0.4,1.9,0.8,3.9,1.2,5.8c0.1,0.5,0,0.6-0.5,0.6c-1.7,0-3.4,0-5,0
	c-0.3,0-0.5,0-0.4-0.4l3.8-8.7C159.5,16.2,159.5,16.1,159.6,16z"/>
</svg>
