<svg id="圖層_1" data-name="圖層 1" xmlns="http://www.w3.org/2000/svg" viewBox="0 0 20 20"><defs><style>.cls-1{fill:#292d32;}</style></defs><path class="cls-1" d="M19.55,7.06A9.89,9.89,0,0,0,7.63.28,9.75,9.75,0,0,0,1.79,4.37,9.7,9.7,0,0,0,.15,11.13a9.6,9.6,0,0,0,1.18,3.61.32.32,0,0,1,0,.3C1.07,16.09.78,17.14.5,18.2.33,18.8.17,19.4,0,20H.05l5-1.31a.69.69,0,0,1,.49.05,9.76,9.76,0,0,0,5.84,1,9.33,9.33,0,0,0,5.21-2.37A9.6,9.6,0,0,0,19.55,7.06Zm-5.34,7.17a3,3,0,0,1-2.58.31A10.15,10.15,0,0,1,6,10.36a5.73,5.73,0,0,1-1-2A2.89,2.89,0,0,1,5,7.68a2.73,2.73,0,0,1,.9-2.07.9.9,0,0,1,.69-.28c.14,0,.27,0,.4,0a.5.5,0,0,1,.55.36c.27.66.55,1.32.83,2a.44.44,0,0,1,0,.43,7.21,7.21,0,0,1-.62.81.4.4,0,0,0,0,.53,6.77,6.77,0,0,0,3.4,2.91.39.39,0,0,0,.5-.12l.75-.93c.17-.21.26-.26.52-.16.72.3,1.41.65,2.1,1a.28.28,0,0,1,.16.27A1.93,1.93,0,0,1,14.21,14.23Z"/></svg>